<mxfile host="Electron" modified="2023-12-04T12:19:15.468Z" agent="Mozilla/5.0 (Windows NT 10.0; Win64; x64) AppleWebKit/537.36 (KHTML, like Gecko) draw.io/21.6.5 Chrome/114.0.5735.243 Electron/25.3.1 Safari/537.36" etag="nZQWyLoDvFYyeT0c1_e3" version="21.6.5" type="device">
  <diagram name="Page-1" id="W10y5Xv-MgBhDv2cQMVb">
    <mxGraphModel dx="1040" dy="603" grid="1" gridSize="16" guides="0" tooltips="1" connect="1" arrows="0" fold="1" page="1" pageScale="1" pageWidth="2560" pageHeight="1440" background="#ffffff" math="0" shadow="0">
      <root>
        <mxCell id="0" />
        <mxCell id="1" parent="0" />
        <mxCell id="4zyIvn0-0Vn7ysodNtMI-83" value="Serial Structure" style="rounded=0;whiteSpace=wrap;html=1;verticalAlign=top;" parent="1" vertex="1">
          <mxGeometry x="64" y="1024" width="224" height="192" as="geometry" />
        </mxCell>
        <mxCell id="4zyIvn0-0Vn7ysodNtMI-82" value="Parallel Structure" style="rounded=0;whiteSpace=wrap;html=1;verticalAlign=top;" parent="1" vertex="1">
          <mxGeometry x="576" y="1024" width="288" height="352" as="geometry" />
        </mxCell>
        <mxCell id="4zyIvn0-0Vn7ysodNtMI-51" value="General Interconnect" style="rounded=0;whiteSpace=wrap;html=1;verticalAlign=top;" parent="1" vertex="1">
          <mxGeometry x="144" y="128" width="544" height="480" as="geometry" />
        </mxCell>
        <mxCell id="4zyIvn0-0Vn7ysodNtMI-34" style="edgeStyle=orthogonalEdgeStyle;rounded=0;orthogonalLoop=1;jettySize=auto;html=1;exitX=0.5;exitY=1;exitDx=0;exitDy=0;entryX=0;entryY=0.5;entryDx=0;entryDy=0;" parent="1" source="x5MmImR9Tws4CZoo8QPT-1" target="x5MmImR9Tws4CZoo8QPT-2" edge="1">
          <mxGeometry relative="1" as="geometry" />
        </mxCell>
        <mxCell id="x5MmImR9Tws4CZoo8QPT-1" value="Arbiter" style="rounded=0;whiteSpace=wrap;html=1;" parent="1" vertex="1">
          <mxGeometry x="320" y="192" width="128" height="64" as="geometry" />
        </mxCell>
        <mxCell id="4zyIvn0-0Vn7ysodNtMI-36" style="edgeStyle=orthogonalEdgeStyle;rounded=0;orthogonalLoop=1;jettySize=auto;html=1;exitX=0.5;exitY=0;exitDx=0;exitDy=0;strokeWidth=2;entryX=0.5;entryY=1;entryDx=0;entryDy=0;" parent="1" source="x5MmImR9Tws4CZoo8QPT-2" target="4zyIvn0-0Vn7ysodNtMI-35" edge="1">
          <mxGeometry relative="1" as="geometry">
            <mxPoint x="496" y="416" as="targetPoint" />
          </mxGeometry>
        </mxCell>
        <mxCell id="x5MmImR9Tws4CZoo8QPT-2" value="MUX" style="shape=trapezoid;perimeter=trapezoidPerimeter;whiteSpace=wrap;html=1;fixedSize=1;rotation=90;" parent="1" vertex="1">
          <mxGeometry x="368" y="368" width="128" height="32" as="geometry" />
        </mxCell>
        <mxCell id="iYGyc5kOzqzwwhRVOcrO-2" style="edgeStyle=orthogonalEdgeStyle;rounded=0;orthogonalLoop=1;jettySize=auto;html=1;exitX=0;exitY=0.5;exitDx=0;exitDy=0;entryX=0;entryY=0.5;entryDx=0;entryDy=0;strokeWidth=2;" parent="1" target="4zyIvn0-0Vn7ysodNtMI-10" edge="1">
          <mxGeometry relative="1" as="geometry">
            <mxPoint x="96" y="303.9047619047619" as="sourcePoint" />
          </mxGeometry>
        </mxCell>
        <mxCell id="4zyIvn0-0Vn7ysodNtMI-10" value="&lt;u&gt;master[0]&lt;/u&gt;" style="rounded=1;whiteSpace=wrap;html=1;fillColor=#E6E6E6;verticalAlign=top;" parent="1" vertex="1">
          <mxGeometry x="128" y="224" width="64" height="160" as="geometry" />
        </mxCell>
        <mxCell id="4zyIvn0-0Vn7ysodNtMI-22" style="edgeStyle=orthogonalEdgeStyle;rounded=0;orthogonalLoop=1;jettySize=auto;html=1;exitX=1;exitY=0.5;exitDx=0;exitDy=0;entryX=0;entryY=0.25;entryDx=0;entryDy=0;" parent="1" source="4zyIvn0-0Vn7ysodNtMI-11" target="x5MmImR9Tws4CZoo8QPT-1" edge="1">
          <mxGeometry relative="1" as="geometry">
            <mxPoint x="256" y="288" as="targetPoint" />
            <Array as="points">
              <mxPoint x="256" y="288" />
              <mxPoint x="256" y="208" />
            </Array>
          </mxGeometry>
        </mxCell>
        <mxCell id="4zyIvn0-0Vn7ysodNtMI-11" value="src" style="text;html=1;strokeColor=none;fillColor=none;align=center;verticalAlign=middle;whiteSpace=wrap;rounded=0;" parent="1" vertex="1">
          <mxGeometry x="144" y="272" width="32" height="32" as="geometry" />
        </mxCell>
        <mxCell id="4zyIvn0-0Vn7ysodNtMI-25" style="edgeStyle=orthogonalEdgeStyle;rounded=0;orthogonalLoop=1;jettySize=auto;html=1;exitX=1;exitY=0.5;exitDx=0;exitDy=0;strokeWidth=2;entryX=0.25;entryY=1;entryDx=0;entryDy=0;" parent="1" source="4zyIvn0-0Vn7ysodNtMI-12" target="x5MmImR9Tws4CZoo8QPT-2" edge="1">
          <mxGeometry relative="1" as="geometry">
            <mxPoint x="320" y="352.05555555555554" as="targetPoint" />
          </mxGeometry>
        </mxCell>
        <mxCell id="4zyIvn0-0Vn7ysodNtMI-12" value="data" style="text;html=1;strokeColor=none;fillColor=none;align=center;verticalAlign=middle;whiteSpace=wrap;rounded=0;" parent="1" vertex="1">
          <mxGeometry x="144" y="336" width="32" height="32" as="geometry" />
        </mxCell>
        <mxCell id="4zyIvn0-0Vn7ysodNtMI-23" style="edgeStyle=orthogonalEdgeStyle;rounded=0;orthogonalLoop=1;jettySize=auto;html=1;exitX=1;exitY=0.5;exitDx=0;exitDy=0;endArrow=diamondThin;endFill=0;" parent="1" source="4zyIvn0-0Vn7ysodNtMI-13" edge="1">
          <mxGeometry relative="1" as="geometry">
            <mxPoint x="208.0000000000001" y="288" as="targetPoint" />
          </mxGeometry>
        </mxCell>
        <mxCell id="4zyIvn0-0Vn7ysodNtMI-13" value="dst" style="text;html=1;strokeColor=none;fillColor=none;align=center;verticalAlign=middle;whiteSpace=wrap;rounded=0;" parent="1" vertex="1">
          <mxGeometry x="144" y="304" width="32" height="32" as="geometry" />
        </mxCell>
        <mxCell id="iYGyc5kOzqzwwhRVOcrO-3" style="edgeStyle=orthogonalEdgeStyle;rounded=0;orthogonalLoop=1;jettySize=auto;html=1;exitX=0;exitY=0.5;exitDx=0;exitDy=0;entryX=0;entryY=0.5;entryDx=0;entryDy=0;strokeWidth=2;" parent="1" target="4zyIvn0-0Vn7ysodNtMI-18" edge="1">
          <mxGeometry relative="1" as="geometry">
            <mxPoint x="96" y="495.80952380952374" as="sourcePoint" />
          </mxGeometry>
        </mxCell>
        <mxCell id="4zyIvn0-0Vn7ysodNtMI-18" value="&lt;u&gt;master[1]&lt;/u&gt;" style="rounded=1;whiteSpace=wrap;html=1;fillColor=#E6E6E6;verticalAlign=top;" parent="1" vertex="1">
          <mxGeometry x="128" y="416" width="64" height="160" as="geometry" />
        </mxCell>
        <mxCell id="4zyIvn0-0Vn7ysodNtMI-26" style="edgeStyle=orthogonalEdgeStyle;rounded=0;orthogonalLoop=1;jettySize=auto;html=1;exitX=1;exitY=0.5;exitDx=0;exitDy=0;entryX=0;entryY=0.75;entryDx=0;entryDy=0;" parent="1" source="4zyIvn0-0Vn7ysodNtMI-19" target="x5MmImR9Tws4CZoo8QPT-1" edge="1">
          <mxGeometry relative="1" as="geometry">
            <mxPoint x="272" y="480.2380952380952" as="targetPoint" />
            <Array as="points">
              <mxPoint x="272" y="480" />
              <mxPoint x="272" y="240" />
            </Array>
          </mxGeometry>
        </mxCell>
        <mxCell id="4zyIvn0-0Vn7ysodNtMI-19" value="src" style="text;html=1;strokeColor=none;fillColor=none;align=center;verticalAlign=middle;whiteSpace=wrap;rounded=0;" parent="1" vertex="1">
          <mxGeometry x="144" y="464" width="32" height="32" as="geometry" />
        </mxCell>
        <mxCell id="4zyIvn0-0Vn7ysodNtMI-28" style="edgeStyle=orthogonalEdgeStyle;rounded=0;orthogonalLoop=1;jettySize=auto;html=1;exitX=1;exitY=0.5;exitDx=0;exitDy=0;strokeWidth=2;entryX=0.75;entryY=1;entryDx=0;entryDy=0;" parent="1" source="4zyIvn0-0Vn7ysodNtMI-20" target="x5MmImR9Tws4CZoo8QPT-2" edge="1">
          <mxGeometry relative="1" as="geometry">
            <mxPoint x="272" y="544.047619047619" as="targetPoint" />
            <Array as="points">
              <mxPoint x="384" y="544" />
              <mxPoint x="384" y="416" />
            </Array>
          </mxGeometry>
        </mxCell>
        <mxCell id="4zyIvn0-0Vn7ysodNtMI-20" value="data" style="text;html=1;strokeColor=none;fillColor=none;align=center;verticalAlign=middle;whiteSpace=wrap;rounded=0;" parent="1" vertex="1">
          <mxGeometry x="144" y="528" width="32" height="32" as="geometry" />
        </mxCell>
        <mxCell id="4zyIvn0-0Vn7ysodNtMI-27" style="edgeStyle=orthogonalEdgeStyle;rounded=0;orthogonalLoop=1;jettySize=auto;html=1;exitX=1;exitY=0.5;exitDx=0;exitDy=0;endArrow=diamondThin;endFill=0;" parent="1" source="4zyIvn0-0Vn7ysodNtMI-21" edge="1">
          <mxGeometry relative="1" as="geometry">
            <mxPoint x="208" y="480" as="targetPoint" />
          </mxGeometry>
        </mxCell>
        <mxCell id="4zyIvn0-0Vn7ysodNtMI-21" value="dst" style="text;html=1;strokeColor=none;fillColor=none;align=center;verticalAlign=middle;whiteSpace=wrap;rounded=0;" parent="1" vertex="1">
          <mxGeometry x="144" y="496" width="32" height="32" as="geometry" />
        </mxCell>
        <mxCell id="4zyIvn0-0Vn7ysodNtMI-24" value="routing" style="text;html=1;strokeColor=none;fillColor=none;align=center;verticalAlign=middle;whiteSpace=wrap;rounded=0;" parent="1" vertex="1">
          <mxGeometry x="208" y="272" width="48" height="16" as="geometry" />
        </mxCell>
        <mxCell id="4zyIvn0-0Vn7ysodNtMI-29" value="" style="endArrow=diamondThin;html=1;rounded=0;startArrow=oval;startFill=1;endFill=0;" parent="1" edge="1">
          <mxGeometry width="50" height="50" relative="1" as="geometry">
            <mxPoint x="256" y="288" as="sourcePoint" />
            <mxPoint x="256" y="352" as="targetPoint" />
          </mxGeometry>
        </mxCell>
        <mxCell id="4zyIvn0-0Vn7ysodNtMI-30" value="interface" style="text;html=1;strokeColor=none;fillColor=none;align=center;verticalAlign=middle;whiteSpace=wrap;rounded=0;" parent="1" vertex="1">
          <mxGeometry x="304" y="336" width="48" height="16" as="geometry" />
        </mxCell>
        <mxCell id="4zyIvn0-0Vn7ysodNtMI-31" value="" style="endArrow=diamondThin;html=1;rounded=0;startArrow=oval;startFill=1;endFill=0;" parent="1" edge="1">
          <mxGeometry width="50" height="50" relative="1" as="geometry">
            <mxPoint x="272" y="480" as="sourcePoint" />
            <mxPoint x="272" y="544" as="targetPoint" />
          </mxGeometry>
        </mxCell>
        <mxCell id="4zyIvn0-0Vn7ysodNtMI-32" value="routing" style="text;html=1;strokeColor=none;fillColor=none;align=center;verticalAlign=middle;whiteSpace=wrap;rounded=0;" parent="1" vertex="1">
          <mxGeometry x="208" y="464" width="48" height="16" as="geometry" />
        </mxCell>
        <mxCell id="4zyIvn0-0Vn7ysodNtMI-33" value="interface" style="text;html=1;strokeColor=none;fillColor=none;align=center;verticalAlign=middle;whiteSpace=wrap;rounded=0;" parent="1" vertex="1">
          <mxGeometry x="304" y="528" width="48" height="16" as="geometry" />
        </mxCell>
        <mxCell id="4zyIvn0-0Vn7ysodNtMI-45" style="edgeStyle=orthogonalEdgeStyle;rounded=0;orthogonalLoop=1;jettySize=auto;html=1;entryX=0;entryY=0.5;entryDx=0;entryDy=0;strokeWidth=2;" parent="1" target="4zyIvn0-0Vn7ysodNtMI-37" edge="1">
          <mxGeometry relative="1" as="geometry">
            <mxPoint x="544" y="352" as="sourcePoint" />
            <Array as="points">
              <mxPoint x="576" y="352" />
              <mxPoint x="576" y="304" />
            </Array>
          </mxGeometry>
        </mxCell>
        <mxCell id="4zyIvn0-0Vn7ysodNtMI-46" style="edgeStyle=orthogonalEdgeStyle;rounded=0;orthogonalLoop=1;jettySize=auto;html=1;entryX=0;entryY=0.5;entryDx=0;entryDy=0;strokeWidth=2;" parent="1" target="4zyIvn0-0Vn7ysodNtMI-41" edge="1">
          <mxGeometry relative="1" as="geometry">
            <mxPoint x="544" y="416" as="sourcePoint" />
            <Array as="points">
              <mxPoint x="576" y="416" />
              <mxPoint x="576" y="496" />
            </Array>
          </mxGeometry>
        </mxCell>
        <mxCell id="4zyIvn0-0Vn7ysodNtMI-47" style="edgeStyle=orthogonalEdgeStyle;rounded=0;orthogonalLoop=1;jettySize=auto;html=1;exitX=1;exitY=0.5;exitDx=0;exitDy=0;startArrow=diamondThin;startFill=0;entryX=0;entryY=0.5;entryDx=0;entryDy=0;" parent="1" target="4zyIvn0-0Vn7ysodNtMI-35" edge="1">
          <mxGeometry relative="1" as="geometry">
            <mxPoint x="560" y="288" as="targetPoint" />
            <mxPoint x="480" y="384" as="sourcePoint" />
            <Array as="points">
              <mxPoint x="480" y="304" />
              <mxPoint x="528" y="304" />
            </Array>
          </mxGeometry>
        </mxCell>
        <mxCell id="4zyIvn0-0Vn7ysodNtMI-35" value="DEMUX" style="shape=trapezoid;perimeter=trapezoidPerimeter;whiteSpace=wrap;html=1;fixedSize=1;rotation=90;horizontal=1;flipV=1;" parent="1" vertex="1">
          <mxGeometry x="464" y="368" width="128" height="32" as="geometry" />
        </mxCell>
        <mxCell id="iYGyc5kOzqzwwhRVOcrO-4" style="edgeStyle=orthogonalEdgeStyle;rounded=0;orthogonalLoop=1;jettySize=auto;html=1;exitX=1;exitY=0.5;exitDx=0;exitDy=0;strokeWidth=2;" parent="1" source="4zyIvn0-0Vn7ysodNtMI-37" edge="1">
          <mxGeometry relative="1" as="geometry">
            <mxPoint x="736" y="303.9047619047619" as="targetPoint" />
          </mxGeometry>
        </mxCell>
        <mxCell id="4zyIvn0-0Vn7ysodNtMI-37" value="&lt;u&gt;slave[0]&lt;/u&gt;" style="rounded=1;whiteSpace=wrap;html=1;fillColor=#E6E6E6;verticalAlign=top;" parent="1" vertex="1">
          <mxGeometry x="640" y="224" width="64" height="160" as="geometry" />
        </mxCell>
        <mxCell id="4zyIvn0-0Vn7ysodNtMI-38" value="src" style="text;html=1;strokeColor=none;fillColor=none;align=center;verticalAlign=middle;whiteSpace=wrap;rounded=0;" parent="1" vertex="1">
          <mxGeometry x="656" y="272" width="32" height="32" as="geometry" />
        </mxCell>
        <mxCell id="4zyIvn0-0Vn7ysodNtMI-39" value="data" style="text;html=1;strokeColor=none;fillColor=none;align=center;verticalAlign=middle;whiteSpace=wrap;rounded=0;" parent="1" vertex="1">
          <mxGeometry x="656" y="336" width="32" height="32" as="geometry" />
        </mxCell>
        <mxCell id="4zyIvn0-0Vn7ysodNtMI-40" value="dst" style="text;html=1;strokeColor=none;fillColor=none;align=center;verticalAlign=middle;whiteSpace=wrap;rounded=0;" parent="1" vertex="1">
          <mxGeometry x="656" y="304" width="32" height="32" as="geometry" />
        </mxCell>
        <mxCell id="iYGyc5kOzqzwwhRVOcrO-5" style="edgeStyle=orthogonalEdgeStyle;rounded=0;orthogonalLoop=1;jettySize=auto;html=1;exitX=1;exitY=0.5;exitDx=0;exitDy=0;strokeWidth=2;" parent="1" source="4zyIvn0-0Vn7ysodNtMI-41" edge="1">
          <mxGeometry relative="1" as="geometry">
            <mxPoint x="736" y="495.80952380952374" as="targetPoint" />
          </mxGeometry>
        </mxCell>
        <mxCell id="4zyIvn0-0Vn7ysodNtMI-41" value="&lt;u&gt;slave[1]&lt;/u&gt;" style="rounded=1;whiteSpace=wrap;html=1;fillColor=#E6E6E6;verticalAlign=top;" parent="1" vertex="1">
          <mxGeometry x="640" y="416" width="64" height="160" as="geometry" />
        </mxCell>
        <mxCell id="4zyIvn0-0Vn7ysodNtMI-42" value="src" style="text;html=1;strokeColor=none;fillColor=none;align=center;verticalAlign=middle;whiteSpace=wrap;rounded=0;" parent="1" vertex="1">
          <mxGeometry x="656" y="464" width="32" height="32" as="geometry" />
        </mxCell>
        <mxCell id="4zyIvn0-0Vn7ysodNtMI-43" value="data" style="text;html=1;strokeColor=none;fillColor=none;align=center;verticalAlign=middle;whiteSpace=wrap;rounded=0;" parent="1" vertex="1">
          <mxGeometry x="656" y="528" width="32" height="32" as="geometry" />
        </mxCell>
        <mxCell id="4zyIvn0-0Vn7ysodNtMI-44" value="dst" style="text;html=1;strokeColor=none;fillColor=none;align=center;verticalAlign=middle;whiteSpace=wrap;rounded=0;" parent="1" vertex="1">
          <mxGeometry x="656" y="496" width="32" height="32" as="geometry" />
        </mxCell>
        <mxCell id="4zyIvn0-0Vn7ysodNtMI-48" value="dst" style="text;html=1;strokeColor=none;fillColor=none;align=center;verticalAlign=middle;whiteSpace=wrap;rounded=0;" parent="1" vertex="1">
          <mxGeometry x="480" y="288" width="48" height="16" as="geometry" />
        </mxCell>
        <mxCell id="4zyIvn0-0Vn7ysodNtMI-57" style="edgeStyle=orthogonalEdgeStyle;rounded=0;orthogonalLoop=1;jettySize=auto;html=1;exitX=0.5;exitY=0;exitDx=0;exitDy=0;strokeWidth=1;entryX=0.5;entryY=1;entryDx=0;entryDy=0;" parent="1" source="4zyIvn0-0Vn7ysodNtMI-58" target="4zyIvn0-0Vn7ysodNtMI-60" edge="1">
          <mxGeometry relative="1" as="geometry">
            <mxPoint x="192" y="1152" as="targetPoint" />
          </mxGeometry>
        </mxCell>
        <mxCell id="4zyIvn0-0Vn7ysodNtMI-61" style="edgeStyle=orthogonalEdgeStyle;rounded=0;orthogonalLoop=1;jettySize=auto;html=1;exitX=0.25;exitY=1;exitDx=0;exitDy=0;entryX=0.25;entryY=1;entryDx=0;entryDy=0;" parent="1" target="4zyIvn0-0Vn7ysodNtMI-58" edge="1">
          <mxGeometry relative="1" as="geometry">
            <mxPoint x="48" y="1088" as="sourcePoint" />
          </mxGeometry>
        </mxCell>
        <mxCell id="4zyIvn0-0Vn7ysodNtMI-62" style="edgeStyle=orthogonalEdgeStyle;rounded=0;orthogonalLoop=1;jettySize=auto;html=1;exitX=0.75;exitY=1;exitDx=0;exitDy=0;entryX=0.75;entryY=1;entryDx=0;entryDy=0;" parent="1" target="4zyIvn0-0Vn7ysodNtMI-58" edge="1">
          <mxGeometry relative="1" as="geometry">
            <mxPoint x="48" y="1152" as="sourcePoint" />
          </mxGeometry>
        </mxCell>
        <mxCell id="4zyIvn0-0Vn7ysodNtMI-58" value="MUX" style="shape=trapezoid;perimeter=trapezoidPerimeter;whiteSpace=wrap;html=1;fixedSize=1;rotation=90;" parent="1" vertex="1">
          <mxGeometry x="64" y="1104" width="128" height="32" as="geometry" />
        </mxCell>
        <mxCell id="4zyIvn0-0Vn7ysodNtMI-63" style="edgeStyle=orthogonalEdgeStyle;rounded=0;orthogonalLoop=1;jettySize=auto;html=1;exitX=0.25;exitY=0;exitDx=0;exitDy=0;" parent="1" source="4zyIvn0-0Vn7ysodNtMI-60" edge="1">
          <mxGeometry relative="1" as="geometry">
            <mxPoint x="304" y="1088" as="targetPoint" />
          </mxGeometry>
        </mxCell>
        <mxCell id="4zyIvn0-0Vn7ysodNtMI-64" style="edgeStyle=orthogonalEdgeStyle;rounded=0;orthogonalLoop=1;jettySize=auto;html=1;exitX=0.75;exitY=0;exitDx=0;exitDy=0;" parent="1" source="4zyIvn0-0Vn7ysodNtMI-60" edge="1">
          <mxGeometry relative="1" as="geometry">
            <mxPoint x="304" y="1152" as="targetPoint" />
          </mxGeometry>
        </mxCell>
        <mxCell id="4zyIvn0-0Vn7ysodNtMI-60" value="DEMUX" style="shape=trapezoid;perimeter=trapezoidPerimeter;whiteSpace=wrap;html=1;fixedSize=1;rotation=90;horizontal=1;flipV=1;" parent="1" vertex="1">
          <mxGeometry x="160" y="1104" width="128" height="32" as="geometry" />
        </mxCell>
        <mxCell id="4zyIvn0-0Vn7ysodNtMI-65" style="edgeStyle=orthogonalEdgeStyle;rounded=0;orthogonalLoop=1;jettySize=auto;html=1;exitX=0.5;exitY=0;exitDx=0;exitDy=0;strokeWidth=1;entryX=0.5;entryY=1;entryDx=0;entryDy=0;" parent="1" target="4zyIvn0-0Vn7ysodNtMI-71" edge="1">
          <mxGeometry relative="1" as="geometry">
            <mxPoint x="608" y="1152" as="targetPoint" />
            <mxPoint x="560" y="1120" as="sourcePoint" />
          </mxGeometry>
        </mxCell>
        <mxCell id="4zyIvn0-0Vn7ysodNtMI-76" style="edgeStyle=orthogonalEdgeStyle;rounded=0;orthogonalLoop=1;jettySize=auto;html=1;exitX=0.25;exitY=0;exitDx=0;exitDy=0;entryX=0.25;entryY=1;entryDx=0;entryDy=0;" parent="1" source="4zyIvn0-0Vn7ysodNtMI-71" target="4zyIvn0-0Vn7ysodNtMI-74" edge="1">
          <mxGeometry relative="1" as="geometry" />
        </mxCell>
        <mxCell id="4zyIvn0-0Vn7ysodNtMI-78" style="rounded=0;orthogonalLoop=1;jettySize=auto;html=1;exitX=0.75;exitY=0;exitDx=0;exitDy=0;entryX=0.25;entryY=1;entryDx=0;entryDy=0;" parent="1" source="4zyIvn0-0Vn7ysodNtMI-71" target="4zyIvn0-0Vn7ysodNtMI-75" edge="1">
          <mxGeometry relative="1" as="geometry">
            <Array as="points">
              <mxPoint x="688" y="1152" />
              <mxPoint x="752" y="1248" />
            </Array>
          </mxGeometry>
        </mxCell>
        <mxCell id="4zyIvn0-0Vn7ysodNtMI-71" value="DEMUX" style="shape=trapezoid;perimeter=trapezoidPerimeter;whiteSpace=wrap;html=1;fixedSize=1;rotation=90;horizontal=1;flipV=1;" parent="1" vertex="1">
          <mxGeometry x="576" y="1104" width="128" height="32" as="geometry" />
        </mxCell>
        <mxCell id="4zyIvn0-0Vn7ysodNtMI-72" style="edgeStyle=orthogonalEdgeStyle;rounded=0;orthogonalLoop=1;jettySize=auto;html=1;exitX=0.5;exitY=0;exitDx=0;exitDy=0;strokeWidth=1;entryX=0.5;entryY=1;entryDx=0;entryDy=0;" parent="1" target="4zyIvn0-0Vn7ysodNtMI-73" edge="1">
          <mxGeometry relative="1" as="geometry">
            <mxPoint x="608" y="1312" as="targetPoint" />
            <mxPoint x="560" y="1280" as="sourcePoint" />
          </mxGeometry>
        </mxCell>
        <mxCell id="4zyIvn0-0Vn7ysodNtMI-77" style="rounded=0;orthogonalLoop=1;jettySize=auto;html=1;exitX=0.25;exitY=0;exitDx=0;exitDy=0;entryX=0.75;entryY=1;entryDx=0;entryDy=0;" parent="1" source="4zyIvn0-0Vn7ysodNtMI-73" target="4zyIvn0-0Vn7ysodNtMI-74" edge="1">
          <mxGeometry relative="1" as="geometry">
            <Array as="points">
              <mxPoint x="688" y="1248" />
              <mxPoint x="752" y="1152" />
            </Array>
          </mxGeometry>
        </mxCell>
        <mxCell id="4zyIvn0-0Vn7ysodNtMI-79" style="edgeStyle=orthogonalEdgeStyle;rounded=0;orthogonalLoop=1;jettySize=auto;html=1;exitX=0.75;exitY=0;exitDx=0;exitDy=0;entryX=0.75;entryY=1;entryDx=0;entryDy=0;" parent="1" source="4zyIvn0-0Vn7ysodNtMI-73" target="4zyIvn0-0Vn7ysodNtMI-75" edge="1">
          <mxGeometry relative="1" as="geometry" />
        </mxCell>
        <mxCell id="4zyIvn0-0Vn7ysodNtMI-73" value="DEMUX" style="shape=trapezoid;perimeter=trapezoidPerimeter;whiteSpace=wrap;html=1;fixedSize=1;rotation=90;horizontal=1;flipV=1;" parent="1" vertex="1">
          <mxGeometry x="576" y="1264" width="128" height="32" as="geometry" />
        </mxCell>
        <mxCell id="4zyIvn0-0Vn7ysodNtMI-80" style="edgeStyle=orthogonalEdgeStyle;rounded=0;orthogonalLoop=1;jettySize=auto;html=1;exitX=0.5;exitY=0;exitDx=0;exitDy=0;" parent="1" source="4zyIvn0-0Vn7ysodNtMI-74" edge="1">
          <mxGeometry relative="1" as="geometry">
            <mxPoint x="880" y="1120.2857142857142" as="targetPoint" />
          </mxGeometry>
        </mxCell>
        <mxCell id="4zyIvn0-0Vn7ysodNtMI-74" value="MUX" style="shape=trapezoid;perimeter=trapezoidPerimeter;whiteSpace=wrap;html=1;fixedSize=1;rotation=90;" parent="1" vertex="1">
          <mxGeometry x="736" y="1104" width="128" height="32" as="geometry" />
        </mxCell>
        <mxCell id="4zyIvn0-0Vn7ysodNtMI-81" style="edgeStyle=orthogonalEdgeStyle;rounded=0;orthogonalLoop=1;jettySize=auto;html=1;exitX=0.5;exitY=0;exitDx=0;exitDy=0;" parent="1" source="4zyIvn0-0Vn7ysodNtMI-75" edge="1">
          <mxGeometry relative="1" as="geometry">
            <mxPoint x="880" y="1280.2857142857142" as="targetPoint" />
          </mxGeometry>
        </mxCell>
        <mxCell id="4zyIvn0-0Vn7ysodNtMI-75" value="MUX" style="shape=trapezoid;perimeter=trapezoidPerimeter;whiteSpace=wrap;html=1;fixedSize=1;rotation=90;" parent="1" vertex="1">
          <mxGeometry x="736" y="1264" width="128" height="32" as="geometry" />
        </mxCell>
        <mxCell id="iYGyc5kOzqzwwhRVOcrO-49" value="arb" style="text;html=1;strokeColor=none;fillColor=none;align=center;verticalAlign=middle;whiteSpace=wrap;rounded=0;" parent="1" vertex="1">
          <mxGeometry x="384" y="272" width="48" height="16" as="geometry" />
        </mxCell>
      </root>
    </mxGraphModel>
  </diagram>
</mxfile>
